<svg xmlns="http://www.w3.org/2000/svg" xmlns:xlink="http://www.w3.org/1999/xlink"><symbol fill="currentColor" viewBox="0 0 14 11" id="icon-checkmark"><path d="M11.895 1.047c.136-.137.355-.137.464 0l.793.766c.11.136.11.355 0 .464L4.95 10.48a.315.315 0 0 1-.465 0L.82 6.844c-.11-.137-.11-.356 0-.465l.793-.793c.11-.11.328-.11.465 0l2.625 2.652 7.192-7.191Z"/></symbol><symbol fill="currentColor" viewBox="0 0 13 8" id="icon-dropdown"><path d="M6.309 7.484 1.105 2.316c-.175-.14-.175-.421 0-.597l.704-.668a.405.405 0 0 1 .597 0l4.219 4.148 4.184-4.148c.175-.176.457-.176.597 0l.703.668c.176.176.176.457 0 .597L6.906 7.484a.405.405 0 0 1-.597 0Z"/></symbol><symbol fill="currentColor" viewBox="0 0 18 18" id="icon-error"><path d="M9 .531c4.781 0 8.719 3.938 8.719 8.719 0 4.816-3.938 8.719-8.719 8.719A8.717 8.717 0 0 1 .281 9.25C.281 4.469 4.184.531 9 .531Zm4.957 3.762c-2.566-2.566-6.574-2.707-9.316-.563l9.879 9.88c2.144-2.743 2.003-6.75-.563-9.317Zm-9.95 9.95c2.567 2.566 6.575 2.706 9.317.562l-9.879-9.88c-2.144 2.743-2.004 6.75.563 9.317Z"/></symbol><symbol fill="currentColor" viewBox="0 0 16 16" id="icon-loading"><path d="M9.25 1.5c0 .719-.563 1.25-1.25 1.25-.719 0-1.25-.531-1.25-1.25C6.75.812 7.281.25 8 .25c.688 0 1.25.563 1.25 1.25ZM8 13.25c.688 0 1.25.563 1.25 1.25 0 .719-.563 1.25-1.25 1.25-.719 0-1.25-.531-1.25-1.25 0-.688.531-1.25 1.25-1.25ZM15.75 8c0 .719-.563 1.25-1.25 1.25-.719 0-1.25-.531-1.25-1.25 0-.688.531-1.25 1.25-1.25.688 0 1.25.563 1.25 1.25Zm-13 0c0 .719-.563 1.25-1.25 1.25C.781 9.25.25 8.719.25 8c0-.688.531-1.25 1.25-1.25.688 0 1.25.563 1.25 1.25Zm.625-5.844c.719 0 1.25.563 1.25 1.25 0 .719-.531 1.25-1.25 1.25-.688 0-1.25-.531-1.25-1.25 0-.687.563-1.25 1.25-1.25Zm9.219 9.219c.687 0 1.25.531 1.25 1.25 0 .688-.563 1.25-1.25 1.25-.719 0-1.25-.563-1.25-1.25 0-.719.531-1.25 1.25-1.25Zm-9.219 0c.719 0 1.25.531 1.25 1.25 0 .688-.531 1.25-1.25 1.25-.688 0-1.25-.563-1.25-1.25 0-.719.563-1.25 1.25-1.25Z"/></symbol><symbol fill="currentColor" viewBox="0 0 16 17" id="icon-retry"><path d="M15.094 1.406c.25-.25.656-.062.656.25v4.469a.38.38 0 0 1-.375.375h-4.5a.36.36 0 0 1-.25-.625l1.688-1.688A5.992 5.992 0 0 0 8 2.375a6.134 6.134 0 0 0-6.125 5.781c-.031.219-.188.344-.375.344H.625c-.219 0-.406-.156-.375-.375C.438 4.031 3.844.75 8 .75c2.125 0 4.063.875 5.469 2.281l1.625-1.625Zm.25 7.094c.219 0 .406.188.375.406C15.53 13 12.125 16.25 8 16.25c-2.156 0-4.094-.844-5.5-2.25L.875 15.625a.36.36 0 0 1-.625-.25v-4.5a.38.38 0 0 1 .375-.375h4.469c.312 0 .5.406.25.656l-1.688 1.688C4.75 13.969 6.281 14.625 8 14.625a6.1 6.1 0 0 0 6.094-5.75c.031-.219.187-.375.375-.375h.875Z"/></symbol><symbol fill="currentColor" viewBox="0 0 21 21" id="icon-search"><path d="M19.844 18.82c.195.196.195.508 0 .664l-.899.899c-.156.195-.468.195-.664 0l-4.726-4.727a.63.63 0 0 1-.117-.351v-.508c-1.446 1.21-3.282 1.953-5.313 1.953A8.119 8.119 0 0 1 0 8.625C0 4.172 3.633.5 8.125.5c4.453 0 8.125 3.672 8.125 8.125 0 2.031-.781 3.906-1.992 5.313h.508c.117 0 .234.078.351.156l4.727 4.726ZM8.125 14.875a6.243 6.243 0 0 0 6.25-6.25c0-3.438-2.813-6.25-6.25-6.25a6.243 6.243 0 0 0-6.25 6.25 6.219 6.219 0 0 0 6.25 6.25Z"/></symbol><symbol fill="currentColor" viewBox="0 0 16 16" id="icon-units"><path d="M14.125 7.406c.031.407.031.813 0 1.188l1 .594a.74.74 0 0 1 .344.843c-.344 1.313-1.063 2.5-2 3.469-.25.219-.625.281-.906.125l-1-.594a5.54 5.54 0 0 1-1.032.594v1.156a.733.733 0 0 1-.562.719A7.765 7.765 0 0 1 6 15.5c-.313-.063-.563-.406-.563-.719v-1.156a5.54 5.54 0 0 1-1.03-.594l-1 .594c-.282.156-.657.094-.907-.125-.938-.969-1.656-2.156-2-3.469a.74.74 0 0 1 .344-.844l1-.593c-.032-.156-.032-.406-.032-.594 0-.156 0-.406.032-.594l-1-.562A.74.74 0 0 1 .5 6c.344-1.313 1.063-2.5 2-3.469.25-.219.625-.281.906-.125l1 .594c.25-.188.719-.469 1.032-.594V1.25c0-.344.218-.625.562-.719a7.766 7.766 0 0 1 3.969 0c.312.063.562.406.562.719v1.156A5.5 5.5 0 0 1 11.562 3l1-.594c.282-.156.657-.094.907.125.937.969 1.656 2.156 2 3.469a.74.74 0 0 1-.344.844l-1 .562Zm-1.656 2c.25-1.312.25-1.469 0-2.781l1.375-.781c-.188-.563-.688-1.375-1.063-1.813l-1.375.782c-.969-.844-1.125-.938-2.375-1.375V1.843C8.75 1.812 8.281 1.75 8 1.75c-.313 0-.781.063-1.063.094v1.593c-1.25.438-1.375.532-2.375 1.376L3.188 4.03c-.468.532-.812 1.157-1.062 1.813l1.375.781c-.25 1.313-.25 1.469 0 2.781l-1.375.781c.188.563.688 1.376 1.063 1.813l1.374-.781c.97.844 1.125.937 2.375 1.375v1.594c.282.03.75.093 1.063.093.281 0 .75-.062 1.031-.094v-1.593c1.25-.438 1.375-.531 2.375-1.375l1.375.781c.375-.438.875-1.25 1.063-1.813l-1.375-.78ZM8 5c1.625 0 3 1.375 3 3 0 1.656-1.375 3-3 3a3 3 0 0 1-3-3c0-1.625 1.344-3 3-3Zm0 4.5A1.5 1.5 0 0 0 9.5 8c0-.813-.688-1.5-1.5-1.5A1.5 1.5 0 0 0 6.5 8c0 .844.656 1.5 1.5 1.5Z"/></symbol></svg>